<?xml version="1.0" encoding="utf-8" standalone="no"?>
<!DOCTYPE svg PUBLIC "-//W3C//DTD SVG 1.1//EN"
  "http://www.w3.org/Graphics/SVG/1.1/DTD/svg11.dtd">
<svg xmlns:xlink="http://www.w3.org/1999/xlink" width="125.28pt" height="110.88pt" viewBox="0 0 125.28 110.88" xmlns="http://www.w3.org/2000/svg" version="1.1">
 <metadata>
  <rdf:RDF xmlns:dc="http://purl.org/dc/elements/1.1/" xmlns:cc="http://creativecommons.org/ns#" xmlns:rdf="http://www.w3.org/1999/02/22-rdf-syntax-ns#">
   <cc:Work>
    <dc:type rdf:resource="http://purl.org/dc/dcmitype/StillImage"/>
    <dc:date>2026-03-02T17:19:53.812558</dc:date>
    <dc:format>image/svg+xml</dc:format>
    <dc:creator>
     <cc:Agent>
      <dc:title>Matplotlib v3.8.2, https://matplotlib.org/</dc:title>
     </cc:Agent>
    </dc:creator>
   </cc:Work>
  </rdf:RDF>
 </metadata>
 <defs>
  <style type="text/css">*{stroke-linejoin: round; stroke-linecap: butt}</style>
 </defs>
 <g id="figure_1">
  <g id="patch_1">
   <path d="M 0 110.88 
L 125.28 110.88 
L 125.28 0 
L 0 0 
z
" style="fill: #ffffff"/>
  </g>
  <g id="axes_1">
   <g id="patch_2">
    <path d="M 4.94 105.94 
L 123.84 105.94 
L 123.84 18.509588 
L 4.94 18.509588 
z
" style="fill: #ffffff"/>
   </g>
   <g id="line2d_1">
    <path d="M 4.94 22.582842 
L 123.84 22.582842 
" clip-path="url(#pc18ab7a563)" style="fill: none; stroke-dasharray: 5.55,2.4; stroke-dashoffset: 0; stroke: #808080; stroke-width: 1.5"/>
   </g>
   <g id="line2d_2">
    <path d="M 4.94 101.96589 
L 123.84 101.96589 
" clip-path="url(#pc18ab7a563)" style="fill: none; stroke: #d3d3d3; stroke-width: 1.5; stroke-linecap: square"/>
   </g>
   <g id="PolyCollection_1">
    <path d="M 10.344545 101.96589 
L 10.344545 93.183465 
L 12.033466 68.114491 
L 13.722386 61.842095 
L 15.411307 59.199233 
L 17.100227 56.104345 
L 18.789148 51.31493 
L 20.478068 46.768443 
L 22.166989 44.588932 
L 23.855909 43.502027 
L 25.54483 43.296059 
L 27.23375 40.961026 
L 28.92267 39.528361 
L 32.300511 36.125555 
L 33.989432 34.80866 
L 37.367273 32.712176 
L 40.745114 30.280316 
L 44.122955 29.150497 
L 47.500795 26.961767 
L 50.878636 25.960271 
L 52.567557 26.640765 
L 55.945398 25.537248 
L 57.634318 25.581063 
L 61.012159 25.285505 
L 64.39 24.975405 
L 67.767841 24.633206 
L 74.523523 24.286104 
L 88.034886 23.725817 
L 94.790568 22.867238 
L 98.168409 22.672902 
L 101.54625 22.697447 
L 108.301932 22.483698 
L 111.679773 22.599707 
L 118.435455 22.582842 
L 118.435455 101.96589 
L 118.435455 101.96589 
L 111.679773 101.96589 
L 108.301932 101.96589 
L 101.54625 101.96589 
L 98.168409 101.96589 
L 94.790568 101.96589 
L 88.034886 101.96589 
L 74.523523 101.96589 
L 67.767841 101.96589 
L 64.39 101.96589 
L 61.012159 101.96589 
L 57.634318 101.96589 
L 55.945398 101.96589 
L 52.567557 101.96589 
L 50.878636 101.96589 
L 47.500795 101.96589 
L 44.122955 101.96589 
L 40.745114 101.96589 
L 37.367273 101.96589 
L 33.989432 101.96589 
L 32.300511 101.96589 
L 28.92267 101.96589 
L 27.23375 101.96589 
L 25.54483 101.96589 
L 23.855909 101.96589 
L 22.166989 101.96589 
L 20.478068 101.96589 
L 18.789148 101.96589 
L 17.100227 101.96589 
L 15.411307 101.96589 
L 13.722386 101.96589 
L 12.033466 101.96589 
L 10.344545 101.96589 
z
" clip-path="url(#pc18ab7a563)" style="fill: url(#hcae2bfdfa2); fill-opacity: 0.15; stroke: #ff7f50; stroke-opacity: 0.15"/>
   </g>
   <g id="PolyCollection_2">
    <path d="M 10.344545 101.96589 
L 10.344545 93.183465 
L 11.631028 67.274865 
L 13.188001 61.44826 
L 15.08144 56.435617 
L 16.473479 56.990151 
L 18.142608 52.71546 
L 19.020055 50.602414 
L 21.216971 49.033128 
L 23.948272 44.340024 
L 26.343108 41.998451 
L 27.642785 40.774988 
L 29.965051 38.821565 
L 31.469246 38.039967 
L 35.467237 34.531742 
L 38.11937 32.204758 
L 40.606569 30.736968 
L 43.568778 29.239893 
L 45.970211 27.631418 
L 47.830663 27.192759 
L 56.954792 25.670921 
L 64.251456 24.866444 
L 72.663071 23.940516 
L 85.613661 23.509443 
L 118.435455 22.582851 
L 118.435455 101.96589 
L 118.435455 101.96589 
L 85.613661 101.96589 
L 72.663071 101.96589 
L 64.251456 101.96589 
L 56.954792 101.96589 
L 47.830663 101.96589 
L 45.970211 101.96589 
L 43.568778 101.96589 
L 40.606569 101.96589 
L 38.11937 101.96589 
L 35.467237 101.96589 
L 31.469246 101.96589 
L 29.965051 101.96589 
L 27.642785 101.96589 
L 26.343108 101.96589 
L 23.948272 101.96589 
L 21.216971 101.96589 
L 19.020055 101.96589 
L 18.142608 101.96589 
L 16.473479 101.96589 
L 15.08144 101.96589 
L 13.188001 101.96589 
L 11.631028 101.96589 
L 10.344545 101.96589 
z
" clip-path="url(#pc18ab7a563)" style="fill: url(#hc91452d2cf); fill-opacity: 0.15; stroke: #1e90ff; stroke-opacity: 0.15"/>
   </g>
   <g id="matplotlib.axis_1">
    <g id="xtick_1">
     <g id="line2d_3">
      <defs>
       <path id="me3fc74e6a9" d="M 0 0 
L 0 3.5 
" style="stroke: #000000; stroke-width: 0.8"/>
      </defs>
      <g>
       <use xlink:href="#me3fc74e6a9" x="10.344545" y="105.94" style="stroke: #000000; stroke-width: 0.8"/>
      </g>
     </g>
    </g>
    <g id="xtick_2">
     <g id="line2d_4">
      <g>
       <use xlink:href="#me3fc74e6a9" x="64.39" y="105.94" style="stroke: #000000; stroke-width: 0.8"/>
      </g>
     </g>
    </g>
    <g id="xtick_3">
     <g id="line2d_5">
      <g>
       <use xlink:href="#me3fc74e6a9" x="118.435455" y="105.94" style="stroke: #000000; stroke-width: 0.8"/>
      </g>
     </g>
    </g>
   </g>
   <g id="matplotlib.axis_2">
    <g id="ytick_1">
     <g id="line2d_6">
      <defs>
       <path id="m84cb95b186" d="M 0 0 
L -3.5 0 
" style="stroke: #000000; stroke-width: 0.8"/>
      </defs>
      <g>
       <use xlink:href="#m84cb95b186" x="4.94" y="101.96589" style="stroke: #000000; stroke-width: 0.8"/>
      </g>
     </g>
    </g>
    <g id="ytick_2">
     <g id="line2d_7">
      <g>
       <use xlink:href="#m84cb95b186" x="4.94" y="79.916079" style="stroke: #000000; stroke-width: 0.8"/>
      </g>
     </g>
    </g>
    <g id="ytick_3">
     <g id="line2d_8">
      <g>
       <use xlink:href="#m84cb95b186" x="4.94" y="57.866267" style="stroke: #000000; stroke-width: 0.8"/>
      </g>
     </g>
    </g>
    <g id="ytick_4">
     <g id="line2d_9">
      <g>
       <use xlink:href="#m84cb95b186" x="4.94" y="35.816456" style="stroke: #000000; stroke-width: 0.8"/>
      </g>
     </g>
    </g>
   </g>
   <g id="line2d_10">
    <path d="M 10.344545 93.183465 
L 12.033466 68.114491 
L 13.722386 61.842095 
L 15.411307 59.199233 
L 17.100227 56.104345 
L 18.789148 51.31493 
L 20.478068 46.768443 
L 22.166989 44.588932 
L 23.855909 43.502027 
L 25.54483 43.296059 
L 27.23375 40.961026 
L 28.92267 39.528361 
L 32.300511 36.125555 
L 33.989432 34.80866 
L 37.367273 32.712176 
L 40.745114 30.280316 
L 44.122955 29.150497 
L 47.500795 26.961767 
L 50.878636 25.960271 
L 52.567557 26.640765 
L 55.945398 25.537248 
L 57.634318 25.581063 
L 61.012159 25.285505 
L 64.39 24.975405 
L 67.767841 24.633206 
L 74.523523 24.286104 
L 88.034886 23.725817 
L 94.790568 22.867238 
L 98.168409 22.672902 
L 101.54625 22.697447 
L 108.301932 22.483698 
L 111.679773 22.599707 
L 118.435455 22.582842 
" clip-path="url(#pc18ab7a563)" style="fill: none; stroke: #ff7f50; stroke-width: 1.5; stroke-linecap: square"/>
   </g>
   <g id="line2d_11">
    <path d="M 10.344545 93.183465 
L 11.631028 67.274865 
L 13.188001 61.44826 
L 15.08144 56.435617 
L 16.473479 56.990151 
L 18.142608 52.71546 
L 19.020055 50.602414 
L 21.216971 49.033128 
L 23.948272 44.340024 
L 26.343108 41.998451 
L 27.642785 40.774988 
L 29.965051 38.821565 
L 31.469246 38.039967 
L 35.467237 34.531742 
L 38.11937 32.204758 
L 40.606569 30.736968 
L 43.568778 29.239893 
L 45.970211 27.631418 
L 47.830663 27.192759 
L 56.954792 25.670921 
L 64.251456 24.866444 
L 72.663071 23.940516 
L 85.613661 23.509443 
L 118.435455 22.582851 
" clip-path="url(#pc18ab7a563)" style="fill: none; stroke: #1e90ff; stroke-opacity: 0.8; stroke-width: 1.5; stroke-linecap: square"/>
   </g>
   <g id="patch_3">
    <path d="M 4.94 105.94 
L 4.94 18.509588 
" style="fill: none; stroke: #000000; stroke-width: 0.8; stroke-linejoin: miter; stroke-linecap: square"/>
   </g>
   <g id="patch_4">
    <path d="M 123.84 105.94 
L 123.84 18.509588 
" style="fill: none; stroke: #000000; stroke-width: 0.8; stroke-linejoin: miter; stroke-linecap: square"/>
   </g>
   <g id="patch_5">
    <path d="M 4.94 105.94 
L 123.84 105.94 
" style="fill: none; stroke: #000000; stroke-width: 0.8; stroke-linejoin: miter; stroke-linecap: square"/>
   </g>
   <g id="patch_6">
    <path d="M 4.94 18.509588 
L 123.84 18.509588 
" style="fill: none; stroke: #000000; stroke-width: 0.8; stroke-linejoin: miter; stroke-linecap: square"/>
   </g>
   <g id="text_1">
    <!-- $\mathit{AUC}^{+}$ -->
    <g transform="translate(41.922229 12.509588) scale(0.16 -0.16)">
     <defs>
      <path id="CMTI12-41" d="M 1178 718 
C 979 365 800 218 480 186 
C 410 180 358 173 358 64 
C 358 0 422 0 435 0 
C 589 0 762 0 922 0 
C 1094 0 1280 0 1446 0 
C 1491 0 1562 0 1562 126 
C 1562 186 1510 192 1472 192 
C 1318 192 1229 268 1229 388 
C 1229 477 1280 559 1338 661 
L 1805 1478 
L 3290 1478 
L 3360 463 
C 3366 362 3379 192 2982 192 
C 2893 192 2835 192 2835 66 
C 2835 0 2899 0 2925 0 
C 3136 0 3366 0 3584 0 
C 3795 0 4013 0 4218 0 
C 4256 0 4333 0 4333 119 
C 4333 192 4288 192 4205 192 
C 3891 192 3859 235 3846 394 
L 3565 4422 
C 3558 4557 3552 4576 3462 4576 
C 3373 4576 3354 4538 3309 4461 
L 1178 718 
z
M 1914 1664 
L 3130 3814 
L 3277 1664 
L 1914 1664 
z
" transform="scale(0.015625)"/>
      <path id="CMTI12-55" d="M 4614 3725 
C 4717 4128 4986 4166 5222 4166 
C 5248 4166 5318 4166 5318 4279 
C 5318 4352 5261 4352 5235 4352 
C 5062 4352 4864 4352 4685 4352 
C 4307 4352 4128 4352 4122 4352 
C 4077 4352 4006 4352 4006 4230 
C 4006 4172 4058 4166 4102 4166 
C 4339 4166 4467 4096 4467 3905 
C 4467 3848 4454 3771 4442 3733 
L 3872 1453 
C 3686 719 3046 57 2400 57 
C 2035 57 1715 312 1715 859 
C 1715 1005 1741 1208 1779 1349 
L 2419 3898 
C 2477 4115 2515 4166 2912 4166 
C 3021 4166 3078 4166 3078 4282 
C 3078 4352 3021 4352 2989 4352 
C 2765 4352 2528 4352 2298 4352 
C 2061 4352 1818 4352 1587 4352 
C 1536 4352 1466 4352 1466 4230 
C 1466 4166 1510 4166 1632 4166 
C 1792 4166 1971 4166 1971 4064 
C 1971 4026 1971 4007 1958 3969 
L 1331 1462 
C 1280 1259 1280 1138 1280 1042 
C 1280 291 1798 -128 2374 -128 
C 3149 -128 3853 669 4038 1416 
L 4614 3725 
z
" transform="scale(0.015625)"/>
      <path id="CMTI12-43" d="M 5088 4341 
C 5094 4360 5101 4410 5101 4423 
C 5101 4480 5056 4480 5043 4480 
C 5030 4480 5005 4480 4960 4423 
L 4544 3914 
C 4339 4289 4013 4480 3597 4480 
C 2304 4480 947 3056 947 1550 
C 947 469 1651 -128 2464 -128 
C 3162 -128 3667 368 3718 412 
C 4275 959 4378 1518 4378 1531 
C 4378 1588 4326 1588 4288 1588 
C 4237 1588 4211 1582 4192 1524 
C 3904 552 3155 57 2560 57 
C 1978 57 1453 464 1453 1327 
C 1453 1505 1523 2592 2144 3443 
C 2470 3882 3053 4295 3642 4295 
C 4467 4295 4544 3411 4544 3131 
C 4544 3036 4531 2890 4512 2795 
L 4512 2738 
C 4512 2681 4563 2681 4595 2681 
C 4659 2681 4672 2687 4698 2789 
L 5088 4341 
z
" transform="scale(0.015625)"/>
      <path id="CMR17-2b" d="M 2413 1472 
L 4109 1472 
C 4198 1472 4307 1472 4307 1580 
C 4307 1695 4205 1695 4109 1695 
L 2413 1695 
L 2413 3386 
C 2413 3475 2413 3584 2304 3584 
C 2189 3584 2189 3482 2189 3386 
L 2189 1695 
L 493 1695 
C 403 1695 294 1695 294 1587 
C 294 1472 397 1472 493 1472 
L 2189 1472 
L 2189 -218 
C 2189 -307 2189 -416 2298 -416 
C 2413 -416 2413 -314 2413 -218 
L 2413 1472 
z
" transform="scale(0.015625)"/>
     </defs>
     <use xlink:href="#CMTI12-41" transform="scale(0.996264)"/>
     <use xlink:href="#CMTI12-55" transform="translate(69.92373 0) scale(0.996264)"/>
     <use xlink:href="#CMTI12-43" transform="translate(142.33818 0) scale(0.996264)"/>
     <use xlink:href="#CMR17-2b" transform="translate(226.606205 41.151544) scale(0.697382)"/>
    </g>
   </g>
   <g id="legend_1">
    <g id="patch_7">
     <path d="M 43.039416 100.94 
L 116.84 100.94 
Q 118.84 100.94 118.84 98.94 
L 118.84 80.065643 
Q 118.84 78.065643 116.84 78.065643 
L 43.039416 78.065643 
Q 41.039416 78.065643 41.039416 80.065643 
L 41.039416 98.94 
Q 41.039416 100.94 43.039416 100.94 
z
" style="fill: #ffffff; opacity: 0.8; stroke: #cccccc; stroke-linejoin: miter"/>
    </g>
    <g id="line2d_12">
     <path d="M 43.039416 83.565643 
L 53.039416 83.565643 
L 63.039416 83.565643 
" style="fill: none; stroke: #ff7f50; stroke-width: 1.5; stroke-linecap: square"/>
    </g>
    <g id="text_2">
     <!-- \textbf{AA} 32.45 -->
     <g transform="translate(71.039416 87.065643) scale(0.1 -0.1)">
      <defs>
       <path id="CMSSBX10-41" d="M 3034 4202 
C 2938 4480 2752 4480 2624 4480 
L 2061 4480 
C 1933 4480 1747 4480 1651 4202 
L 301 303 
C 269 220 269 207 269 175 
C 269 0 429 0 518 0 
L 749 0 
C 864 0 1062 0 1152 254 
L 1402 960 
L 3174 960 
L 3392 350 
C 3469 127 3514 0 3821 0 
L 4166 0 
C 4256 0 4416 0 4416 172 
C 4416 204 4416 217 4384 301 
L 3034 4202 
z
M 2054 2891 
C 2150 3176 2234 3422 2285 3656 
L 2291 3656 
C 2323 3501 2323 3488 2374 3338 
L 2982 1516 
L 1594 1516 
L 2054 2891 
z
" transform="scale(0.015625)"/>
       <path id="CMSS17-33" d="M 1005 2025 
L 1440 2025 
C 2042 2025 2214 1507 2214 1146 
C 2214 653 1933 267 1472 267 
C 1114 267 608 444 320 912 
C 275 691 275 678 250 526 
C 550 88 1037 -128 1485 -128 
C 2214 -128 2752 473 2752 1138 
C 2752 1638 2400 2057 1920 2215 
C 2304 2424 2586 2816 2586 3273 
C 2586 3805 2093 4229 1491 4229 
C 941 4229 512 3892 333 3530 
C 378 3468 493 3284 550 3189 
C 691 3562 1056 3840 1485 3840 
C 1843 3840 2080 3607 2080 3271 
C 2080 2923 1856 2543 1478 2455 
C 1453 2455 1056 2417 1005 2411 
L 1005 2025 
z
" transform="scale(0.015625)"/>
       <path id="CMSS17-32" d="M 1651 1357 
C 1830 1541 2099 1764 2285 1987 
C 2464 2204 2701 2511 2701 2957 
C 2701 3657 2227 4288 1421 4288 
C 787 4288 422 3893 250 3274 
L 499 2929 
C 640 3510 838 3880 1338 3880 
C 1888 3880 2195 3433 2195 2942 
C 2195 2355 1747 1901 1408 1563 
C 1030 1187 659 804 301 408 
L 301 0 
L 2701 0 
L 2701 433 
L 1613 433 
C 1536 433 1459 433 1382 433 
L 742 433 
L 742 439 
L 1651 1357 
z
" transform="scale(0.015625)"/>
       <path id="CMSS17-2e" d="M 1088 510 
L 576 510 
L 576 0 
L 1088 0 
L 1088 510 
z
" transform="scale(0.015625)"/>
       <path id="CMSS17-34" d="M 2253 1088 
L 2835 1088 
L 2835 1477 
L 2253 1477 
L 2253 4192 
L 1690 4192 
L 166 1477 
L 166 1088 
L 1747 1088 
L 1747 0 
L 2253 0 
L 2253 1088 
z
M 659 1477 
C 1030 2127 1766 3439 1766 3885 
L 1766 1477 
L 659 1477 
z
" transform="scale(0.015625)"/>
       <path id="CMSS17-35" d="M 934 3752 
L 2502 3752 
L 2502 4160 
L 467 4160 
L 467 1781 
L 896 1781 
C 1011 2046 1248 2240 1555 2240 
C 1843 2240 2163 1989 2163 1266 
C 2163 493 1709 267 1376 267 
C 966 267 589 512 422 851 
L 218 499 
C 512 49 992 -128 1376 -128 
C 2118 -128 2701 497 2701 1253 
C 2701 2030 2182 2629 1562 2629 
C 1338 2629 1120 2553 934 2399 
L 934 3752 
z
" transform="scale(0.015625)"/>
      </defs>
      <use xlink:href="#CMSSBX10-41" transform="scale(0.996264)"/>
      <use xlink:href="#CMSSBX10-41" transform="translate(73.059766 0) scale(0.996264)"/>
      <use xlink:href="#CMSS17-33" transform="translate(177.348645 0) scale(0.996264)"/>
      <use xlink:href="#CMSS17-32" transform="translate(224.192268 0) scale(0.996264)"/>
      <use xlink:href="#CMSS17-2e" transform="translate(271.035892 0) scale(0.996264)"/>
      <use xlink:href="#CMSS17-34" transform="translate(297.060097 0) scale(0.996264)"/>
      <use xlink:href="#CMSS17-35" transform="translate(343.90372 0) scale(0.996264)"/>
     </g>
    </g>
    <g id="line2d_13">
     <path d="M 43.039416 93.502822 
L 53.039416 93.502822 
L 63.039416 93.502822 
" style="fill: none; stroke: #1e90ff; stroke-opacity: 0.8; stroke-width: 1.5; stroke-linecap: square"/>
    </g>
    <g id="text_3">
     <!-- {BPT} 32.44 -->
     <g transform="translate(71.039416 97.002822) scale(0.1 -0.1)">
      <defs>
       <path id="CMSS17-42" d="M 570 4416 
L 570 0 
L 2163 0 
C 3034 0 3667 574 3667 1200 
C 3667 1685 3251 2176 2502 2317 
C 3334 2558 3501 3040 3501 3313 
C 3501 3883 2874 4416 1997 4416 
L 570 4416 
z
M 1088 2496 
L 1088 4059 
L 1824 4059 
C 2483 4059 3002 3724 3002 3306 
C 3002 2926 2592 2496 1766 2496 
L 1088 2496 
z
M 1088 357 
L 1088 2107 
L 1939 2107 
C 2630 2107 3162 1679 3162 1206 
C 3162 772 2694 357 1984 357 
L 1088 357 
z
" transform="scale(0.015625)"/>
       <path id="CMSS17-50" d="M 2106 1856 
C 2874 1856 3501 2453 3501 3158 
C 3501 3850 2899 4453 2067 4453 
L 570 4453 
L 570 0 
L 1107 0 
L 1107 1856 
L 2106 1856 
z
M 1926 4096 
C 2669 4096 2995 3627 2995 3157 
C 2995 2720 2694 2226 1926 2226 
L 1094 2226 
L 1094 4096 
L 1926 4096 
z
" transform="scale(0.015625)"/>
       <path id="CMSS17-54" d="M 2317 3968 
L 2848 3968 
C 2925 3968 3002 3968 3078 3968 
L 3878 3968 
L 3878 4376 
L 218 4376 
L 218 3968 
L 1018 3968 
C 1094 3968 1171 3968 1248 3968 
L 1779 3968 
L 1779 -32 
L 2317 -32 
L 2317 3968 
z
" transform="scale(0.015625)"/>
      </defs>
      <use xlink:href="#CMSS17-42" transform="scale(0.996264)"/>
      <use xlink:href="#CMSS17-50" transform="translate(62.33804 0) scale(0.996264)"/>
      <use xlink:href="#CMSS17-54" transform="translate(122.073626 0) scale(0.996264)"/>
      <use xlink:href="#CMSS17-33" transform="translate(217.122193 0) scale(0.996264)"/>
      <use xlink:href="#CMSS17-32" transform="translate(263.965817 0) scale(0.996264)"/>
      <use xlink:href="#CMSS17-2e" transform="translate(310.80944 0) scale(0.996264)"/>
      <use xlink:href="#CMSS17-34" transform="translate(336.833645 0) scale(0.996264)"/>
      <use xlink:href="#CMSS17-34" transform="translate(383.677269 0) scale(0.996264)"/>
     </g>
    </g>
   </g>
  </g>
 </g>
 <defs>
  <clipPath id="pc18ab7a563">
   <rect x="4.94" y="18.509588" width="118.9" height="87.430412"/>
  </clipPath>
 </defs>
 <defs>
  <pattern id="hcae2bfdfa2" patternUnits="userSpaceOnUse" x="0" y="0" width="72" height="72">
   <rect x="0" y="0" width="73" height="73" fill="#ff7f50"/>
   <path d="M -36 36 
L 36 -36 
M -32 40 
L 40 -32 
M -28 44 
L 44 -28 
M -24 48 
L 48 -24 
M -20 52 
L 52 -20 
M -16 56 
L 56 -16 
M -12 60 
L 60 -12 
M -8 64 
L 64 -8 
M -4 68 
L 68 -4 
M 0 72 
L 72 0 
M 4 76 
L 76 4 
M 8 80 
L 80 8 
M 12 84 
L 84 12 
M 16 88 
L 88 16 
M 20 92 
L 92 20 
M 24 96 
L 96 24 
M 28 100 
L 100 28 
M 32 104 
L 104 32 
M 36 108 
L 108 36 
" style="fill: #ff7f50; stroke: #ff7f50; stroke-width: 1.0; stroke-linecap: butt; stroke-linejoin: miter; stroke-opacity: 0.15"/>
  </pattern>
  <pattern id="hc91452d2cf" patternUnits="userSpaceOnUse" x="0" y="0" width="72" height="72">
   <rect x="0" y="0" width="73" height="73" fill="#1e90ff"/>
   <path d="M -36 36 
L 36 108 
M -32 32 
L 40 104 
M -28 28 
L 44 100 
M -24 24 
L 48 96 
M -20 20 
L 52 92 
M -16 16 
L 56 88 
M -12 12 
L 60 84 
M -8 8 
L 64 80 
M -4 4 
L 68 76 
M 0 0 
L 72 72 
M 4 -4 
L 76 68 
M 8 -8 
L 80 64 
M 12 -12 
L 84 60 
M 16 -16 
L 88 56 
M 20 -20 
L 92 52 
M 24 -24 
L 96 48 
M 28 -28 
L 100 44 
M 32 -32 
L 104 40 
M 36 -36 
L 108 36 
" style="fill: #1e90ff; stroke: #1e90ff; stroke-width: 1.0; stroke-linecap: butt; stroke-linejoin: miter; stroke-opacity: 0.15"/>
  </pattern>
 </defs>
</svg>
